# xmcd
#
# Track frame offsets: 
#        195
#        9733
#        18145
#        31120
#        39170
#        51020
#        61408
#        75045
#        84783
#        95270
#        107645
#        117870
#        129570
#        138945
#
# Disc length: 2002 seconds
#
# Revision: 0
# Processed by: cddbd v1.5.2PL0 Copyright (c) Steve Scherf et al.
# Submitted via: ExactAudioCopy v0.99pb3
#
DISCID=9207d00e
DTITLE=Anneke Grönloh - Asmara
DYEAR=1992
DGENRE=Indo
TTITLE0=Asmara
TTITLE1=Deri Ketjil
TTITLE2=O Ina Ni Keke
TTITLE3=Tjerewerewe
TTITLE4=Rambut Itam Matanja Galak
TTITLE5=Buka Pintu
TTITLE6=Nina Bobo
TTITLE7=O, O, O, Papa Dja (Ola Bapa Dja)
TTITLE8=Boeroeng Kaka
TTITLE9=Bengawan SOlo
TTITLE10=Mak Inang
TTITLE11=Gena Rembulan
TTITLE12=Penga-Jung
TTITLE13=Aku Chari Laki Gagan (Ik zoek een man)
EXTD=
EXTT0=
EXTT1=
EXTT2=
EXTT3=
EXTT4=
EXTT5=
EXTT6=
EXTT7=
EXTT8=
EXTT9=
EXTT10=
EXTT11=
EXTT12=
EXTT13=
PLAYORDER=
